<svg viewBox="0 0 1920 672" xmlns="http://www.w3.org/2000/svg"><g fill="#fff"><path d="m491 526.2v47.4h14.2v3h-17.4v-50.5h3.2z"></path><path d="m527 525.3 3 .9-5.6 15.1-2-.8z"></path><path d="m556.2 547.6h30.9v-21.4h3.2v50.5h-3.2v-26h-30.9v26h-3.2v-50.5h3.2z"></path><path d="m641.4 560.1h-21.5l-6.7 16.6h-3.6l21.3-52 21 52h-3.6zm-1.2-3-9.5-23.9-9.6 23.9z"></path><path d="m670.9 526.2h11c4.4 0 7.9 1.2 10.3 3.5s3.6 5.4 3.6 9.2c0 2.7-.6 5-1.7 6.8s-2.6 3.2-4.2 4.2c3.3.6 5.9 2 7.7 4.3s2.7 5.1 2.7 8.4c0 2.2-.4 4.2-1.2 5.9s-1.9 3.2-3.3 4.4-3 2.1-5 2.8c-1.9.7-4 1-6.3 1h-13.8v-50.5zm3.2 22.9h8.1c1.3 0 2.5-.1 3.6-.4s2.2-.8 3.3-1.7c1-.9 1.8-1.9 2.4-3.2s.9-2.8.9-4.5c0-2-.4-3.7-1.1-4.9-.7-1.3-1.5-2.2-2.4-3-1.3-1-2.7-1.6-4.2-1.8s-3-.3-4.3-.3h-6.5v19.8zm0 24.6h8.5c1.7 0 3.6-.1 5.5-.4 2-.3 3.8-1.1 5.5-2.6 1.4-1.2 2.3-2.5 2.7-3.9s.6-2.7.6-3.8c0-2.3-.4-4.2-1.3-5.8-.8-1.6-2.2-2.8-4.2-3.6-.7-.3-1.8-.6-3.2-.9s-3.5-.5-6.4-.5h-7.9v21.5z"></path><path d="m725.8 526.2v50.5h-3.2v-50.5z"></path><path d="m761.5 529.3v47.4h-3.2v-47.4h-13.1v-3h29.4v3z"></path><path d="m816.1 560.1h-21.5l-6.7 16.6h-3.6l21.3-52 21 52h-3.6zm-1.2-3-9.5-23.9-9.6 23.9z"></path><path d="m852.2 529.3v47.4h-3.2v-47.4h-13v-3h29.4v3z"></path><path d="m916.9 552.7v24h-3.2v-50.5h9.8c2.1 0 4 .3 5.8.8 1.8.6 3.4 1.4 4.7 2.5s2.4 2.5 3.1 4.1c.8 1.6 1.1 3.5 1.1 5.7 0 2.1-.4 4-1.1 5.6s-1.7 3-3 4.2c-1.3 1.1-2.9 2-4.7 2.6s-3.8.9-6 .9h-6.5zm0-3h6.7c3.4 0 6.1-.9 8.1-2.7s3.1-4.3 3.1-7.5-1-5.7-3.1-7.5c-2-1.8-4.9-2.7-8.6-2.7h-6.2z"></path><path d="m983 529.3h-21v18.3h20.6v3h-20.6v23.1h21v3h-24.2v-50.5h24.2z"></path><path d="m1026.3 576.7-16.3-23.8h-1.5v23.8h-3.2v-50.5h7.3c1.9 0 3.8.1 5.5.4 1.8.3 3.5 1 5.1 2.2 2 1.4 3.3 3 4.1 5 .8 1.9 1.1 3.9 1.1 5.9 0 1.3-.2 2.5-.5 3.7s-.8 2.4-1.5 3.5-1.5 2.1-2.6 3-2.4 1.6-4 2.1c-1.3.5-2.6.7-3.7.8s-2 .2-2.6.2l16.5 23.8h-3.7zm-17.9-26.9h4.9c3.7 0 6.5-.9 8.6-2.7 2-1.8 3.1-4.3 3.1-7.6 0-1.3-.1-2.4-.4-3.4s-.6-1.8-1.1-2.5c-.4-.7-.9-1.3-1.4-1.8s-1.1-.8-1.6-1.1c-.6-.3-1.2-.6-1.9-.8s-1.4-.4-2.1-.5-1.4-.2-2.1-.2-1.2-.1-1.8-.1h-4.2z"></path><path d="m1072.4 529.3h-17.2v18.3h16.8v3h-16.8v26.1h-3.2v-50.5h20.4z"></path><path d="m1115.1 525.5c3.7 0 7.1.7 10.3 2 3.2 1.4 6 3.2 8.3 5.6 2.3 2.3 4.2 5.1 5.5 8.2 1.3 3.2 2 6.5 2 10.2 0 3.6-.7 7-2 10.2s-3.2 5.9-5.5 8.2-5.1 4.2-8.3 5.5-6.6 2-10.3 2-7.2-.7-10.4-2-5.9-3.2-8.3-5.5c-2.3-2.3-4.2-5.1-5.5-8.2-1.3-3.2-2-6.5-2-10.2 0-3.6.7-7 2-10.2s3.2-5.9 5.5-8.2 5.1-4.2 8.3-5.6c3.3-1.3 6.8-2 10.4-2zm0 49c3.2 0 6.2-.6 9-1.8s5.2-2.8 7.2-4.9 3.6-4.5 4.8-7.3c1.1-2.8 1.7-5.8 1.7-9s-.6-6.2-1.7-9-2.7-5.2-4.8-7.3c-2-2.1-4.5-3.7-7.2-4.9-2.8-1.2-5.8-1.8-9-1.8-3.3 0-6.3.6-9 1.8-2.8 1.2-5.1 2.8-7.2 4.9-2 2.1-3.6 4.5-4.8 7.3-1.1 2.8-1.7 5.8-1.7 9s.6 6.2 1.7 9 2.7 5.2 4.8 7.3c2 2.1 4.4 3.7 7.2 4.9 2.7 1.2 5.8 1.8 9 1.8z"></path><path d="m1184.6 576.7-16.3-23.8h-1.5v23.8h-3.2v-50.5h7.3c1.9 0 3.8.1 5.5.4 1.8.3 3.5 1 5.1 2.2 2 1.4 3.3 3 4.1 5 .8 1.9 1.1 3.9 1.1 5.9 0 1.3-.2 2.5-.5 3.7s-.8 2.4-1.5 3.5-1.5 2.1-2.6 3-2.4 1.6-4 2.1c-1.3.5-2.6.7-3.7.8s-2 .2-2.6.2l16.5 23.8h-3.7zm-17.9-26.9h4.9c3.7 0 6.5-.9 8.6-2.7 2-1.8 3.1-4.3 3.1-7.6 0-1.3-.1-2.4-.4-3.4s-.6-1.8-1.1-2.5c-.4-.7-.9-1.3-1.4-1.8s-1.1-.8-1.6-1.1c-.6-.3-1.2-.6-1.9-.8s-1.4-.4-2.1-.5-1.4-.2-2.1-.2-1.2-.1-1.8-.1h-4.2z"></path><path d="m1209.8 576.7 5.8-52.2 21.9 46.7 21.9-46.7 5.8 52.2h-3.2l-4.5-40.5-20 42.4-20-42.4-4.5 40.5z"></path><path d="m1314.8 560.1h-21.5l-6.7 16.6h-3.6l21.3-52 21 52h-3.6zm-1.2-3-9.5-23.9-9.6 23.9z"></path><path d="m1344.4 576.7v-51l42.5 44.3v-43.8h3.2v51.8l-42.5-44.3v43z"></path><path d="m1425.5 529.3v47.4h-3.2v-47.4h-13.1v-3h29.4v3z"></path><path d="m347.7 136.3v127.3h-34.9-16.3-71.5v-127.3h-63.7v318.2h63.7v-127.3h69.6 18.2 34.9v127.3h63.6v-318.2z"></path><path d="m636 130.9c219 0 219 328 0 328s-218.9-328 0-328zm0 65.4c-127.3 0-127.3 196.7 0 196.7s127.3-196.7 0-196.7z"></path><path d="m1131.3 131.4h20v323.1h-64.5l.4-177.6-81.4 85.4-81.4-85.4v177.6h-64.5v-323.1h20.5l125.5 139.7z"></path><path d="m1210.5 454.5c38.3-85.5 89.5-171.3 127.8-256.3h-112.4v-61.9h209.2c-38.3 85-91.5 169.6-129.8 254.1h118.4v64.1z"></path><path d="m1689 307.3-37.5-77.2-44.4-91.5h-7.6l-152.3 316h65.4l90.9-197.3 92.3 197.3h63.5z"></path></g><path d="m1631.8 405.5h-56.2l24.4-57h7z" fill="#54b0bd"></path><path d="m1657.3 190.9 54 106.4v-149.8h-54z" fill="#54b0bd"></path></svg>